<svg width="92" height="20" viewBox="0 0 92 20" fill="none" xmlns="http://www.w3.org/2000/svg">
<path d="M18.9203 12.4191C17.6374 17.7763 12.4259 21.0365 7.27975 19.7006C2.13573 18.365 -0.995769 12.9388 0.287684 7.58198C1.56994 2.22422 6.7815 -1.03637 11.9261 0.299246C17.0719 1.63486 20.2031 7.06168 18.9203 12.4191Z" fill="#FCA014"/>
<path d="M13.8386 8.57527C14.0298 7.24466 13.0567 6.52935 11.7262 6.05217L12.1578 4.24968L11.1039 3.97625L10.6837 5.73123C10.4067 5.65935 10.1221 5.59155 9.8394 5.52436L10.2626 3.75781L9.20938 3.48438L8.77746 5.28623C8.54814 5.23185 8.32302 5.17811 8.10451 5.12155L8.10571 5.11592L6.65238 4.73811L6.37204 5.90997C6.37204 5.90997 7.15393 6.09654 7.13742 6.1081C7.56424 6.21903 7.64138 6.51309 7.62847 6.74621L7.13682 8.79964C7.16624 8.80745 7.20436 8.8187 7.24638 8.8362C7.21126 8.82714 7.17374 8.81713 7.13502 8.80745L6.44587 11.684C6.39364 11.819 6.26128 12.0215 5.96293 11.9446C5.97343 11.9605 5.19694 11.7455 5.19694 11.7455L4.67377 13.0015L6.04517 13.3574C6.3003 13.424 6.55032 13.4936 6.79645 13.5593L6.36033 15.3824L7.41296 15.6558L7.84488 13.8521C8.13243 13.9333 8.41157 14.0083 8.68471 14.079L8.2543 15.8743L9.30813 16.1477L9.74425 14.328C11.5413 14.6821 12.8926 14.5393 13.4613 12.8471C13.9197 11.4846 13.4385 10.6987 12.493 10.1862C13.1816 10.0209 13.7003 9.54932 13.8386 8.57527ZM11.4308 12.0905C11.1051 13.453 8.90172 12.7165 8.18736 12.5318L8.76605 10.1165C9.48042 10.3021 11.7712 10.6696 11.4308 12.0905ZM11.7568 8.55557C11.4596 9.79494 9.62569 9.16526 9.03078 9.01088L9.55546 6.82029C10.1504 6.97466 12.0662 7.26277 11.7568 8.55557Z" fill="white"/>
<g opacity="0.5">
<path d="M28.1472 6.04939C28.9261 6.04939 29.5991 6.1947 30.1646 6.48001C30.7327 6.76813 31.2016 7.15625 31.5777 7.64437C31.9487 8.13499 32.2248 8.70843 32.4031 9.36561C32.5802 10.0247 32.669 10.7331 32.669 11.4915C32.669 12.6565 32.464 13.7571 32.0501 14.7946C31.6362 15.8337 31.0746 16.7349 30.3602 17.5036C29.6465 18.2715 28.8037 18.8768 27.8318 19.3239C26.8614 19.7714 25.8063 19.9952 24.6736 19.9952C24.5271 19.9952 24.2695 19.9908 23.9058 19.983C23.542 19.9752 23.1239 19.9361 22.6556 19.8702C22.1844 19.8017 21.6861 19.7005 21.16 19.5649C20.6341 19.4318 20.1346 19.2452 19.6643 19.0083L23.87 0.609762L27.637 0.00195312L26.1311 6.53095C26.4535 6.3797 26.7782 6.26251 27.1024 6.1772C27.4269 6.09314 27.775 6.04939 28.1472 6.04939ZM24.9875 16.884C25.5548 16.884 26.0894 16.7387 26.5915 16.4533C27.0952 16.1677 27.5298 15.7821 27.8939 15.3018C28.258 14.8193 28.5461 14.2759 28.7562 13.6687C28.9663 13.0615 29.0726 12.4281 29.0726 11.769C29.0726 10.9593 28.9426 10.3278 28.6836 9.87123C28.4246 9.41655 27.9452 9.1878 27.2492 9.1878C27.0211 9.1878 26.7272 9.2331 26.3628 9.31404C25.9972 9.39998 25.6701 9.57842 25.3768 9.84685L23.7734 16.7805C23.8701 16.7983 23.9556 16.8152 24.0285 16.8312C24.1 16.8483 24.1789 16.8605 24.2575 16.869C24.3407 16.8787 24.4358 16.8837 24.5508 16.8837C24.6658 16.8837 24.8095 16.884 24.9875 16.884Z" fill="#90A3BF"/>
<path d="M36.5753 19.6432H32.9774L36.0159 6.33178H39.6384L36.5753 19.6432ZM38.3261 4.70992C37.824 4.70992 37.3687 4.55429 36.9646 4.24242C36.5573 3.93242 36.3556 3.45524 36.3556 2.81212C36.3556 2.45838 36.4247 2.1265 36.5615 1.81338C36.7005 1.50088 36.8821 1.23183 37.1096 1.00308C37.3368 0.776206 37.6001 0.594954 37.899 0.458393C38.1998 0.324019 38.5197 0.256836 38.8607 0.256836C39.3626 0.256836 39.8155 0.41246 40.221 0.724332C40.625 1.03777 40.8282 1.51495 40.8282 2.15463C40.8282 2.50963 40.7595 2.84275 40.6214 3.15524C40.4842 3.46774 40.3026 3.7368 40.0751 3.96554C39.8497 4.19273 39.5841 4.37335 39.2857 4.50866C38.9847 4.64523 38.6659 4.70992 38.3261 4.70992Z" fill="#90A3BF"/>
<path d="M42.7911 3.01504L46.5595 2.40723L45.6341 6.33094H49.67L48.9412 9.41778H44.9296L43.8611 14.074C43.7626 14.4621 43.7068 14.8246 43.6912 15.1615C43.6735 15.4999 43.7146 15.7905 43.8119 16.0352C43.9085 16.2805 44.0823 16.4696 44.3344 16.6033C44.5854 16.7393 44.9447 16.8077 45.4159 16.8077C45.804 16.8077 46.1822 16.7693 46.5478 16.693C46.9113 16.618 47.2795 16.5136 47.6523 16.3771L47.9207 19.2633C47.4344 19.4489 46.9079 19.6086 46.3407 19.743C45.7725 19.8792 45.0998 19.9449 44.3224 19.9449C43.2047 19.9449 42.3381 19.7721 41.7207 19.428C41.1042 19.0814 40.6684 18.608 40.4075 18.0086C40.1503 17.4115 40.0353 16.723 40.0675 15.9474C40.1008 15.1699 40.2133 14.3527 40.4075 13.4921L42.7911 3.01504Z" fill="#90A3BF"/>
</g>
<path d="M49.5125 14.328C49.5125 13.1814 49.6908 12.1002 50.0471 11.088C50.4028 10.0749 50.9151 9.18895 51.58 8.42865C52.2424 7.67209 53.0495 7.07272 53.9995 6.63272C54.945 6.19523 56.0036 5.97461 57.1703 5.97461C57.9006 5.97461 58.5528 6.04649 59.1267 6.19055C59.703 6.33586 60.2244 6.52367 60.6959 6.75929L59.4551 9.69676C59.1309 9.55989 58.7944 9.43926 58.4466 9.32989C58.0984 9.21833 57.6734 9.16458 57.1706 9.16458C55.9697 9.16458 55.0203 9.59551 54.3138 10.4546C53.6099 11.3142 53.2554 12.4714 53.2554 13.923C53.2554 14.7833 53.4337 15.4789 53.7915 16.0111C54.1475 16.5433 54.8051 16.8079 55.7599 16.8079C56.2311 16.8079 56.6859 16.7567 57.1214 16.6567C57.5602 16.5554 57.9477 16.4279 58.289 16.2773L58.5576 19.2885C58.1026 19.4723 57.6007 19.6382 57.0502 19.7835C56.4986 19.9238 55.8418 19.9967 55.0803 19.9967C54.0751 19.9967 53.2242 19.8435 52.5281 19.542C51.8318 19.2357 51.2564 18.8292 50.8032 18.3142C50.3475 17.7979 50.0204 17.1951 49.8181 16.5033C49.6158 15.812 49.5125 15.0858 49.5125 14.328Z" fill="#90A3BF"/>
<path d="M65.4948 19.9967C64.636 19.9967 63.8901 19.8604 63.2574 19.5907C62.6265 19.321 62.1039 18.9426 61.6906 18.452C61.2767 17.9639 60.967 17.3854 60.7547 16.7189C60.5425 16.0526 60.4405 15.3148 60.4405 14.5064C60.4405 13.4923 60.5969 12.4786 60.9129 11.4677C61.2275 10.4546 61.6942 9.54427 62.3119 8.73521C62.9249 7.92491 63.6809 7.2624 64.5712 6.74585C65.4605 6.23273 66.4835 5.97461 67.6325 5.97461C68.4756 5.97461 69.2176 6.11117 69.859 6.38085C70.4974 6.64991 71.0233 7.03147 71.439 7.51959C71.8502 8.01021 72.1627 8.58615 72.3728 9.25364C72.5844 9.91864 72.6888 10.6583 72.6888 11.4674C72.6888 12.4783 72.5346 13.492 72.2284 14.5061C71.9219 15.5151 71.4672 16.4276 70.8669 17.2386C70.2678 18.0476 69.5186 18.7098 68.6188 19.2242C67.7201 19.7385 66.678 19.9967 65.4948 19.9967ZM67.293 9.16489C66.7596 9.16489 66.2881 9.32613 65.8844 9.64457C65.4792 9.96675 65.1388 10.3718 64.8644 10.8602C64.5871 11.3508 64.3815 11.8858 64.2425 12.4674C64.1048 13.0502 64.0372 13.6011 64.0372 14.1245C64.0372 14.9692 64.1681 15.627 64.4253 16.1005C64.6862 16.5714 65.1547 16.8083 65.8357 16.8083C66.3709 16.8083 66.8401 16.6483 67.2462 16.3264C67.649 16.0067 67.9896 15.6014 68.2661 15.112C68.5416 14.6239 68.749 14.0873 68.888 13.5049C69.024 12.9239 69.0933 12.3699 69.0933 11.8474C69.0933 11.0049 68.963 10.3455 68.7034 9.87269C68.4441 9.40176 67.9734 9.16489 67.293 9.16489Z" fill="#90A3BF"/>
<path d="M76.6105 19.6432H73.0095L76.048 6.33178H79.6723L76.6105 19.6432ZM78.3585 4.70992C77.8567 4.70992 77.4017 4.55429 76.9983 4.24242C76.593 3.93242 76.3895 3.45524 76.3895 2.81212C76.3895 2.45838 76.4595 2.1265 76.5966 1.81338C76.7338 1.50088 76.9166 1.23183 77.1441 1.00308C77.3701 0.776206 77.6358 0.594954 77.9341 0.458393C78.2331 0.324019 78.553 0.256836 78.8928 0.256836C79.3959 0.256836 79.8503 0.41246 80.2549 0.724332C80.6598 1.03777 80.8642 1.51495 80.8642 2.15463C80.8642 2.50963 80.7916 2.84275 80.6556 3.15524C80.5197 3.46774 80.3369 3.7368 80.1102 3.96554C79.8821 4.19273 79.6198 4.37335 79.3208 4.50866C79.0195 4.64523 78.7001 4.70992 78.3585 4.70992Z" fill="#90A3BF"/>
<path d="M82.2659 6.93757C82.5391 6.85445 82.844 6.75445 83.1757 6.6457C83.5086 6.53695 83.8805 6.43571 84.2959 6.34446C84.7068 6.2504 85.1705 6.17414 85.6805 6.11508C86.1904 6.05477 86.7715 6.02539 87.4172 6.02539C89.3147 6.02539 90.6228 6.6007 91.345 7.74788C92.0665 8.89506 92.1914 10.465 91.7232 12.455L90.0681 19.6424H86.4465L88.0505 12.6063C88.1483 12.1669 88.2252 11.7422 88.2819 11.3272C88.3392 10.916 88.3359 10.5535 88.269 10.2397C88.2051 9.92973 88.0544 9.67598 87.8206 9.47942C87.5831 9.28598 87.2245 9.1888 86.7379 9.1888C86.2688 9.1888 85.7915 9.2413 85.3044 9.34255L82.9461 19.6421H79.3229L82.2659 6.93757Z" fill="#90A3BF"/>
</svg>
